<svg width="951" height="153" viewBox="0 0 951 153" fill="none" xmlns="http://www.w3.org/2000/svg">
<g clip-path="url(#clip0_221_388)">
<path d="M244.808 102.728C235.784 102.728 227.96 100.616 221.336 96.392C214.808 92.072 209.72 86.024 206.072 78.248C202.52 70.376 200.744 61.208 200.744 50.744C200.744 40.184 202.568 31.016 206.216 23.24C209.864 15.464 215.048 9.46399 221.768 5.24C228.488 0.919995 236.456 -1.24001 245.672 -1.24001C252.872 -1.24001 259.496 0.151994 265.544 2.93599C271.592 5.72 276.536 9.752 280.376 15.032C284.312 20.312 286.472 26.744 286.856 34.328H260.936C260.456 29.432 258.92 25.544 256.328 22.664C253.736 19.688 250.184 18.2 245.672 18.2C241.832 18.2 238.328 19.448 235.16 21.944C232.088 24.344 229.64 27.992 227.816 32.888C226.088 37.688 225.224 43.64 225.224 50.744C225.224 57.752 226.088 63.704 227.816 68.6C229.544 73.4 231.848 77.048 234.728 79.544C237.704 82.04 241.064 83.288 244.808 83.288C247.976 83.288 250.712 82.664 253.016 81.416C255.416 80.072 257.336 78.152 258.776 75.656C260.312 73.16 261.224 70.136 261.512 66.584H287.432C286.664 73.976 284.456 80.408 280.808 85.88C277.256 91.256 272.456 95.432 266.408 98.408C260.36 101.288 253.16 102.728 244.808 102.728ZM345.836 101L345.216 87.608V55.244C345.216 51.4413 343.894 48.4653 341.248 46.316C338.603 44.1667 334.966 43.092 330.336 43.092C325.79 43.092 322.111 44.084 319.3 46.068C316.49 47.9693 314.878 50.656 314.464 54.128H297.972C298.386 49.2507 299.998 45.076 302.808 41.604C305.702 38.132 309.546 35.4867 314.34 33.668C319.135 31.7667 324.674 30.816 330.956 30.816C337.322 30.816 342.819 31.808 347.448 33.792C352.16 35.776 355.798 38.6693 358.36 42.472C360.923 46.192 362.204 50.78 362.204 56.236V101H345.836ZM322.896 102.488C318.35 102.488 314.34 101.62 310.868 99.884C307.479 98.148 304.834 95.7507 302.932 92.692C301.031 89.6333 300.08 86.0787 300.08 82.028C300.08 75.0013 302.808 69.5453 308.264 65.66C313.72 61.692 321.326 59.708 331.08 59.708H347.076V71.736H330.584C326.286 71.736 322.896 72.5213 320.416 74.092C317.936 75.6627 316.696 77.9773 316.696 81.036C316.696 83.268 317.606 85.1693 319.424 86.74C321.243 88.228 323.723 88.972 326.864 88.972C331.08 88.972 334.842 87.856 338.148 85.624C341.455 83.392 344.183 80.3747 346.332 76.572L348.192 88.352C346.043 93.064 342.819 96.6187 338.52 99.016C334.222 101.331 329.014 102.488 322.896 102.488ZM416.689 30.816C422.723 30.816 428.055 32.3867 432.685 35.528C437.314 38.6693 440.91 42.968 443.473 48.424C446.118 53.7973 447.441 59.8733 447.441 66.652C447.441 73.348 446.118 79.424 443.473 84.88C440.91 90.2533 437.314 94.552 432.685 97.776C428.055 100.917 422.723 102.488 416.689 102.488C412.473 102.488 408.587 101.703 405.033 100.132C401.561 98.4787 398.626 96.288 396.229 93.56V123.072H379.117V32.304H395.609L395.981 39.868C398.378 37.0573 401.354 34.8667 404.909 33.296C408.463 31.6427 412.39 30.816 416.689 30.816ZM412.473 88.352C416.027 88.352 419.127 87.4013 421.773 85.5C424.501 83.5987 426.609 81.036 428.097 77.812C429.667 74.5053 430.453 70.7853 430.453 66.652C430.453 62.436 429.667 58.716 428.097 55.492C426.609 52.1853 424.501 49.6227 421.773 47.804C419.127 45.9027 416.027 44.952 412.473 44.952C408.753 44.952 405.446 46.068 402.553 48.3C399.659 50.4493 397.551 53.384 396.229 57.104V76.076C397.551 79.796 399.659 82.772 402.553 85.004C405.446 87.236 408.753 88.352 412.473 88.352ZM497.833 101C493.369 101 489.442 100.008 486.053 98.024C482.746 96.04 480.184 93.2707 478.365 89.716C476.629 86.1613 475.761 82.1107 475.761 77.564V20.276L492.873 12.216V77.564C492.873 79.6307 493.162 81.408 493.741 82.896C494.32 84.3013 495.477 85.376 497.213 86.12C498.949 86.864 501.346 87.236 504.405 87.236H522.881V101H497.833ZM461.377 46.068V32.304H511.101V46.068H461.377ZM564.594 101V32.304H581.582V101H564.594ZM541.282 101V87.236H604.522V101H541.282ZM550.086 46.068V32.304H573.15V46.068H550.086ZM563.85 22.26V5.768H582.202V22.26H563.85ZM653.55 102.488C646.275 102.488 639.993 101.041 634.702 98.148C629.494 95.2547 625.485 91.1627 622.674 85.872C619.946 80.4987 618.582 74.092 618.582 66.652C618.582 59.212 619.946 52.8467 622.674 47.556C625.485 42.1827 629.494 38.0493 634.702 35.156C639.993 32.2627 646.275 30.816 653.55 30.816C664.462 30.816 672.977 33.9987 679.094 40.364C685.294 46.7293 688.394 55.492 688.394 66.652C688.394 74.092 686.989 80.4987 684.178 85.872C681.45 91.1627 677.482 95.2547 672.274 98.148C667.066 101.041 660.825 102.488 653.55 102.488ZM653.55 88.6C659.089 88.6 663.429 86.6573 666.57 82.772C669.794 78.804 671.406 73.4307 671.406 66.652C671.406 59.7907 669.794 54.4173 666.57 50.532C663.429 46.6467 659.089 44.704 653.55 44.704C647.929 44.704 643.506 46.6467 640.282 50.532C637.141 54.4173 635.57 59.7907 635.57 66.652C635.57 73.4307 637.141 78.804 640.282 82.772C643.506 86.6573 647.929 88.6 653.55 88.6ZM749.326 101V58.344C749.326 54.376 748.252 51.1933 746.102 48.796C744.036 46.316 741.266 45.076 737.794 45.076C733.826 45.076 730.23 46.4813 727.006 49.292C723.782 52.02 720.765 56.5253 717.954 62.808L715.474 47.184C718.45 41.48 722.212 37.3467 726.758 34.784C731.305 32.1387 736.1 30.816 741.142 30.816C746.35 30.816 750.814 31.932 754.534 34.164C758.337 36.396 761.272 39.496 763.338 43.464C765.405 47.3493 766.438 51.9787 766.438 57.352V101H749.326ZM702.454 101V32.304H718.822L719.442 45.572V101H702.454ZM815.591 102.488C808.234 102.488 801.91 101.041 796.619 98.148C791.411 95.2547 787.36 91.1213 784.467 85.748C781.656 80.3747 780.251 74.0093 780.251 66.652C780.251 59.1293 781.656 52.7227 784.467 47.432C787.36 42.0587 791.494 37.9667 796.867 35.156C802.24 32.2627 808.73 30.816 816.335 30.816C828.156 30.816 836.754 34.1227 842.127 40.736C847.583 47.3493 849.898 56.4427 849.071 68.016H793.891V56.112H831.711C831.38 52.5573 829.768 49.7053 826.875 47.556C824.064 45.324 820.51 44.208 816.211 44.208C809.846 44.208 805.092 46.192 801.951 50.16C798.892 54.128 797.363 59.8733 797.363 67.396C797.363 71.364 798.066 74.96 799.471 78.184C800.876 81.408 802.902 83.9707 805.547 85.872C808.275 87.7733 811.623 88.724 815.591 88.724C819.89 88.724 823.527 87.6493 826.503 85.5C829.562 83.3507 831.422 80.5813 832.083 77.192H849.071C848.162 84.9627 844.731 91.1213 838.779 95.668C832.827 100.215 825.098 102.488 815.591 102.488ZM891.155 30.816C895.371 30.816 899.257 31.6427 902.811 33.296C906.449 34.8667 909.466 37.016 911.863 39.744V9.488H928.727V101H912.483L912.111 93.188C909.714 95.9987 906.697 98.272 903.059 100.008C899.505 101.661 895.537 102.488 891.155 102.488C885.203 102.488 879.913 100.917 875.283 97.776C870.654 94.552 867.017 90.2533 864.371 84.88C861.726 79.424 860.403 73.348 860.403 66.652C860.403 59.8733 861.726 53.7973 864.371 48.424C867.017 42.968 870.654 38.6693 875.283 35.528C879.913 32.3867 885.203 30.816 891.155 30.816ZM895.371 88.352C899.174 88.352 902.522 87.236 905.415 85.004C908.391 82.6893 910.541 79.6307 911.863 75.828V57.352C910.541 53.4667 908.391 50.4493 905.415 48.3C902.522 46.068 899.174 44.952 895.371 44.952C891.899 44.952 888.799 45.9027 886.071 47.804C883.343 49.6227 881.235 52.1853 879.747 55.492C878.259 58.716 877.515 62.436 877.515 66.652C877.515 70.7853 878.259 74.5053 879.747 77.812C881.235 81.036 883.343 83.5987 886.071 85.5C888.799 87.4013 891.899 88.352 895.371 88.352Z" fill="white"/>
<path d="M116.875 153H79.6614L144.786 76.5L79.6614 0H116.875L182 76.5L116.875 153Z" fill="white"/>
<path d="M37.214 153H0L65.1245 76.5L0 0H37.214L102.339 76.5L37.214 153Z" fill="white"/>
<path d="M182 153V125H951V153H182Z" fill="white"/>
</g>
<defs>
<clipPath id="clip0_221_388">
<rect width="951" height="153" fill="white"/>
</clipPath>
</defs>
</svg>
