<svg width="818" height="215" viewBox="0 0 818 215" fill="none" xmlns="http://www.w3.org/2000/svg">
<path d="M0 195L83.6873 111.5L0 28H33.103L116.79 111.5L33.103 195H0Z" fill="white"/>
<path d="M67.3218 195L151.009 111.5L67.3218 28H100.425L184.112 111.5L100.425 195H67.3218Z" fill="white"/>
<path d="M184.112 195V179.042H289V195H184.112Z" fill="white"/>
<path d="M239.273 160.676C230.809 160.676 223.934 159.859 218.648 158.227C213.406 156.551 209.389 154.23 206.596 151.266C203.803 148.301 201.891 144.82 200.859 140.824C199.828 136.828 199.312 132.488 199.312 127.805V96.0293C199.312 91.2168 199.807 86.7695 200.795 82.6875C201.826 78.5625 203.717 74.9746 206.467 71.9238C209.26 68.873 213.299 66.5098 218.584 64.834C223.869 63.1152 230.766 62.2559 239.273 62.2559C247.395 62.2559 253.926 63.0938 258.867 64.7695C263.852 66.4023 267.633 68.7227 270.211 71.7305C272.789 74.7383 274.529 78.2832 275.432 82.3652C276.334 86.4043 276.785 90.8301 276.785 95.6426V96.8027L258.029 98.9941V94.1602C258.029 89.6914 257.471 86.2539 256.354 83.8477C255.236 81.3984 253.324 79.7012 250.617 78.7559C247.91 77.7676 244.129 77.2734 239.273 77.2734C234.547 77.2734 230.637 77.7461 227.543 78.6914C224.492 79.5938 222.215 81.248 220.711 83.6543C219.207 86.0176 218.455 89.3906 218.455 93.7734V129.738C218.455 134.078 219.207 137.408 220.711 139.729C222.215 142.006 224.492 143.574 227.543 144.434C230.637 145.25 234.568 145.658 239.338 145.658C244.193 145.658 247.975 145.25 250.682 144.434C253.389 143.574 255.279 141.984 256.354 139.664C257.471 137.301 258.029 133.863 258.029 129.352V126.322H276.785V128.062C276.785 132.746 276.355 137.064 275.496 141.018C274.637 144.971 272.939 148.43 270.404 151.395C267.869 154.316 264.109 156.594 259.125 158.227C254.141 159.859 247.523 160.676 239.273 160.676ZM312.348 160.438C308.181 160.438 304.598 159.667 301.598 158.125C298.639 156.542 296.368 154.375 294.785 151.625C293.243 148.833 292.473 145.688 292.473 142.188C292.473 138.938 293.118 136.125 294.41 133.75C295.702 131.333 298.098 129.125 301.598 127.125C305.098 125.083 310.139 123.062 316.723 121.062C320.264 119.938 323.16 118.917 325.41 118C327.66 117.083 329.306 116.042 330.348 114.875C331.389 113.708 331.91 112.208 331.91 110.375C331.91 108.583 331.577 107.042 330.91 105.75C330.285 104.458 329.16 103.458 327.535 102.75C325.952 102.042 323.723 101.688 320.848 101.688C317.473 101.688 314.931 102.104 313.223 102.938C311.556 103.729 310.431 104.812 309.848 106.188C309.306 107.562 309.035 109.146 309.035 110.938V113.625H294.66V111.312C294.66 104.812 296.827 99.7708 301.16 96.1875C305.535 92.6042 312.223 90.8125 321.223 90.8125C327.639 90.8125 332.723 91.75 336.473 93.625C340.223 95.4583 342.91 98.0833 344.535 101.5C346.202 104.875 347.035 108.854 347.035 113.438V140.562C347.035 143.771 347.431 145.854 348.223 146.812C349.056 147.771 350.639 148.25 352.973 148.25L352.035 159.5H348.848C344.264 159.5 340.785 158.792 338.41 157.375C336.035 155.917 334.285 153.771 333.16 150.938C332.035 152.479 330.514 153.979 328.598 155.438C326.681 156.896 324.368 158.083 321.66 159C318.993 159.958 315.889 160.438 312.348 160.438ZM316.598 149.938C318.306 149.938 320.181 149.604 322.223 148.938C324.264 148.229 326.16 147.25 327.91 146C329.702 144.75 331.035 143.25 331.91 141.5V124.312C330.868 125.229 329.139 126.312 326.723 127.562C324.348 128.771 321.514 129.938 318.223 131.062C314.056 132.438 311.181 133.938 309.598 135.562C308.014 137.188 307.223 139.146 307.223 141.438C307.223 144.354 308.035 146.5 309.66 147.875C311.285 149.25 313.598 149.938 316.598 149.938ZM368.973 184.562V92.1875H379.973L381.535 96.75C383.577 95.125 386.202 93.7292 389.41 92.5625C392.66 91.3958 396.223 90.8125 400.098 90.8125C408.181 90.8125 414.389 92.8333 418.723 96.875C423.056 100.875 425.223 106.083 425.223 112.5V138.25C425.223 142.292 424.223 146 422.223 149.375C420.223 152.708 417.202 155.396 413.16 157.438C409.16 159.438 404.098 160.438 397.973 160.438C394.931 160.438 392.264 160.146 389.973 159.562C387.723 158.979 385.806 158.312 384.223 157.562V184.562H368.973ZM396.723 149.562C400.848 149.562 404.077 148.708 406.41 147C408.785 145.25 409.973 142.562 409.973 138.938V112.062C409.973 108.479 408.806 105.854 406.473 104.188C404.181 102.521 401.118 101.688 397.285 101.688C395.16 101.688 393.202 102 391.41 102.625C389.618 103.208 388.098 103.896 386.848 104.688C385.639 105.479 384.764 106.188 384.223 106.812V146.375C385.389 147.125 387.014 147.854 389.098 148.562C391.223 149.229 393.764 149.562 396.723 149.562ZM447.473 138.25V102.312H437.848V92.1875H447.973L449.473 70.9375H462.723V92.1875H478.91V102.312H462.723V137.125C462.723 141.375 463.743 144.25 465.785 145.75C467.868 147.208 471.556 147.938 476.848 147.938H479.473L478.598 159.688H474.973C468.431 159.688 463.139 159.042 459.098 157.75C455.098 156.458 452.16 154.25 450.285 151.125C448.41 147.958 447.473 143.667 447.473 138.25ZM494.285 92.1875H509.473V159H494.285V92.1875ZM494.098 79.875V64.5H509.598V79.875H494.098ZM555.723 160.438C548.806 160.438 543.243 159.542 539.035 157.75C534.868 155.958 531.848 153.458 529.973 150.25C528.098 147 527.16 143.208 527.16 138.875V112.375C527.16 107.958 528.223 104.146 530.348 100.938C532.473 97.6875 535.66 95.1875 539.91 93.4375C544.16 91.6875 549.431 90.8125 555.723 90.8125C562.014 90.8125 567.264 91.6875 571.473 93.4375C575.723 95.1875 578.91 97.6875 581.035 100.938C583.202 104.146 584.285 107.958 584.285 112.375V138.875C584.285 143.208 583.368 147 581.535 150.25C579.702 153.458 576.702 155.958 572.535 157.75C568.368 159.542 562.764 160.438 555.723 160.438ZM555.723 149.562C559.681 149.562 562.889 148.833 565.348 147.375C567.806 145.917 569.035 143.375 569.035 139.75V111.562C569.035 107.896 567.827 105.333 565.41 103.875C563.035 102.417 559.806 101.688 555.723 101.688C551.723 101.688 548.493 102.417 546.035 103.875C543.618 105.333 542.41 107.896 542.41 111.562V139.75C542.41 143.375 543.577 145.917 545.91 147.375C548.285 148.833 551.556 149.562 555.723 149.562ZM603.098 92.1875H618.348V98.25C620.723 96.0417 623.473 94.25 626.598 92.875C629.723 91.4583 633.723 90.75 638.598 90.75C643.764 90.75 647.931 91.6667 651.098 93.5C654.306 95.3333 656.639 97.7708 658.098 100.812C659.598 103.812 660.348 107.167 660.348 110.875V159H645.098V111.25C645.098 108.958 644.493 107.167 643.285 105.875C642.077 104.542 640.514 103.604 638.598 103.062C636.681 102.521 634.681 102.25 632.598 102.25C629.931 102.25 627.514 102.667 625.348 103.5C623.223 104.333 621.514 105.521 620.223 107.062C618.973 108.604 618.348 110.458 618.348 112.625V159H603.098V92.1875ZM678.66 137.188V112.062C678.66 105.438 681.098 100.25 685.973 96.5C690.889 92.7083 697.827 90.8125 706.785 90.8125C716.702 90.8125 723.827 92.7292 728.16 96.5625C732.493 100.354 734.66 105.562 734.66 112.188V128.25H693.91V138.625C693.91 143.083 694.952 146.021 697.035 147.438C699.118 148.854 702.535 149.562 707.285 149.562C710.702 149.562 713.348 149.333 715.223 148.875C717.098 148.375 718.431 147.417 719.223 146C720.056 144.542 720.514 142.333 720.598 139.375H734.598C734.389 144.792 733.306 149.042 731.348 152.125C729.431 155.167 726.473 157.312 722.473 158.562C718.473 159.812 713.348 160.438 707.098 160.438C701.264 160.438 696.202 159.688 691.91 158.188C687.66 156.646 684.389 154.188 682.098 150.812C679.806 147.396 678.66 142.854 678.66 137.188ZM720.16 118.688V110.438C720.16 107.854 719.598 105.958 718.473 104.75C717.348 103.5 715.806 102.688 713.848 102.312C711.889 101.896 709.639 101.688 707.098 101.688C703.264 101.688 700.098 102.312 697.598 103.562C695.139 104.771 693.91 107.25 693.91 111V118.688H720.16ZM750.285 138.5V112.312C750.285 105.938 752.473 100.771 756.848 96.8125C761.264 92.8125 768.348 90.8125 778.098 90.8125C780.056 90.8125 782.243 91.0417 784.66 91.5C787.118 91.9167 789.348 92.4792 791.348 93.1875V64.5H806.598V159H796.223L794.41 154.938C792.327 156.438 789.723 157.729 786.598 158.812C783.514 159.896 780.264 160.438 776.848 160.438C770.681 160.438 765.639 159.521 761.723 157.688C757.806 155.854 754.91 153.312 753.035 150.062C751.202 146.771 750.285 142.917 750.285 138.5ZM791.348 146.25V104.188C790.014 103.521 788.264 102.938 786.098 102.438C783.931 101.938 781.598 101.688 779.098 101.688C774.973 101.688 771.681 102.438 769.223 103.938C766.764 105.438 765.535 108 765.535 111.625V139C765.535 142.625 766.702 145.271 769.035 146.938C771.368 148.562 774.493 149.375 778.41 149.375C781.077 149.375 783.556 149.062 785.848 148.438C788.181 147.771 790.014 147.042 791.348 146.25Z" fill="white"/>
</svg>
